# xmcd
#
# Track frame offsets: 
#        150
#        22172
#        45501
#        64017
#        79912
#        102325
#        116683
#        141329
#        164974
#        189876
#        204737
#        217445
#
# Disc length: 3177 seconds
#
# Revision: 1
# Processed by: cddbd v1.5.2PL0 Copyright (c) Steve Scherf et al.
# Submitted via: ExactAudioCopy v0.99pb5
#
DISCID=bd0c670c
DTITLE=Grupo Polo Montanes - Un Sueno y Nada Mas
DYEAR=1900
DGENRE=Salsa
TTITLE0=Tu Mi Inspiracion
TTITLE1=Yo Te Hice Mujer
TTITLE2=La Sombre Loca
TTITLE3=Dejate Llevar
TTITLE4=Empezar a Vivir
TTITLE5=Por Ella
TTITLE6=Seguire Mi Camino
TTITLE7=Vives en Nuestros Corazones
TTITLE8=Todo Acabo
TTITLE9=Ya No Poedo estar Sin Ti
TTITLE10=Solo Para Siempre
TTITLE11=Un Suendo y Nada Mas
EXTD=Salsa , subitted By Filipe  www.salsaholic.org
EXTT0=
EXTT1=
EXTT2=
EXTT3=
EXTT4=
EXTT5=
EXTT6=
EXTT7=
EXTT8=
EXTT9=
EXTT10=
EXTT11=
PLAYORDER=
